<svg width="124" height="124" viewBox="0 0 124 124" fill="none" xmlns="http://www.w3.org/2000/svg">
  <rect width="124" height="124" rx="28" fill="#F2F7F4"/>
  <path d="M13.81 51.64H51.442V61.24H13.81V51.64ZM24.946 42.04H40.306V83H24.946V42.04ZM53.6775 38.84H69.0375V83H53.6775V38.84ZM107.95 51.64L82.6055 69.24L82.9255 60.92L110.125 83H90.6695L69.2935 65.144L87.5975 51.64H107.95Z" fill="rgba(0,0,0,0.25)" transform="translate(2, 2)"/>
  <path d="M13.81 51.64H51.442V61.24H13.81V51.64ZM24.946 42.04H40.306V83H24.946V42.04ZM53.6775 38.84H69.0375V83H53.6775V38.84ZM107.95 51.64L82.6055 69.24L82.9255 60.92L110.125 83H90.6695L69.2935 65.144L87.5975 51.64H107.95Z" fill="#1D8A4C"/>
</svg>
